Coordinates
version=1
nRows=11
nColumns=46
inDegrees=yes

Units are S.I. units (second, meters, Newtons, ...)
Angles are in degrees.

endheader
time	pelvis_tilt	pelvis_list	pelvis_rotation	pelvis_tx	pelvis_ty	pelvis_tz	bb_angle	bb_tx	bb_ty	bb_tz	hip_flexion_r	hip_adduction_r	hip_rotation_r	knee_angle_r	knee_angle_r_beta	ankle_angle_r	subtalar_angle_r	mtp_angle_r	crank_angle_r	hip_flexion_l	hip_adduction_l	hip_rotation_l	knee_angle_l	knee_angle_l_beta	ankle_angle_l	subtalar_angle_l	mtp_angle_l	crank_angle_l	lumbar_extension	lumbar_bending	lumbar_rotation	arm_flex_r	arm_add_r	arm_rot_r	elbow_flex_r	pro_sup_r	wrist_flex_r	wrist_dev_r	arm_flex_l	arm_add_l	arm_rot_l	elbow_flex_l	pro_sup_l	wrist_flex_l	wrist_dev_l
      2.50000000	    -22.91588417	    -13.81793784	    -11.20513356	      0.36516401	      1.06357745	     -0.27520077	      0.00000000	      0.50000000	      0.00000000	      0.25000000	     58.32829940	      5.47632742	     -0.57802326	    104.26625098	      1.81978938	     13.66574912	     13.30824325	      0.00000000	      0.00000000	     43.20852807	    -20.80095652	      0.29480342	     41.97573964	      0.73261486	      6.86696058	     -4.98584034	      0.00000000	      0.00000000	    -50.04024626	      2.42797448	     -3.28056449	     69.87617689	     12.11648070	     20.50984921	     28.08414621	     43.66828599	      0.00000000	      0.00000000	     27.73057348	    -26.07938648	     -2.25816472	     94.89264018	     48.42174193	      0.00000000	      0.00000000
      2.50500000	    -23.12049075	    -14.05598750	    -12.35167099	      0.36360718	      1.06296693	     -0.27581426	      0.00000000	      0.50000000	      0.00000000	      0.25000000	     59.67983126	      5.91179827	     -0.63048911	    105.42902922	      1.84008369	     14.17621503	     13.63845781	      0.00000000	      0.00000000	     42.10915896	    -21.48922824	     -0.00408036	     40.78960888	      0.71191298	      6.16862897	     -4.83348596	      0.00000000	      0.00000000	    -49.94844337	      3.10662160	     -2.24803831	     70.06684682	     12.53678835	     20.47969694	     28.44917200	     43.71594049	      0.00000000	      0.00000000	     27.37164172	    -26.78468641	     -2.28299270	     94.47301578	     48.35397406	      0.00000000	      0.00000000
      2.51000000	    -23.24454130	    -14.12192408	    -13.93233629	      0.36227086	      1.06274977	     -0.27523807	      0.00000000	      0.50000000	      0.00000000	      0.25000000	     60.95821404	      6.81043679	     -0.16537855	    106.55369805	      1.85971286	     15.14778834	     14.42469064	      0.00000000	      0.00000000	     40.73542723	    -22.50442228	     -1.32861977	     39.70251452	      0.69293960	      5.23369170	     -4.72243460	      0.00000000	      0.00000000	    -49.79372343	      3.21844122	     -1.32254669	     69.67842091	     13.22030088	     20.08047767	     29.23210097	     43.77774155	      0.00000000	      0.00000000	     26.64635734	    -28.69845335	     -1.68678887	     93.23148942	     48.21556816	      0.00000000	      0.00000000
      2.51500000	    -23.58967898	    -14.17269725	    -15.04702551	      0.36125175	      1.06231717	     -0.27571049	      0.00000000	      0.50000000	      0.00000000	      0.25000000	     62.38005831	      7.22839198	     -0.02677281	    107.47012251	      1.87570749	     15.44442006	     15.32337753	      0.00000000	      0.00000000	     39.73628138	    -23.05551364	     -2.05978598	     38.57793428	      0.67331197	      4.31517547	     -4.77770765	      0.00000000	      0.00000000	    -49.44249737	      3.63269901	      0.23340285	     68.52411677	     13.27900897	     16.68137914	     31.93342010	     43.68207819	      0.00000000	      0.00000000	     27.65254106	    -30.01067768	      1.22990616	     91.16882411	     48.21584326	      0.00000000	      0.00000000
      2.52000000	    -23.91283747	    -14.33216482	    -16.12540426	      0.36019801	      1.06201392	     -0.27588157	      0.00000000	      0.50000000	      0.00000000	      0.25000000	     63.73310848	      7.80606403	     -0.07931425	    108.33397338	      1.89078453	     16.10079791	     15.71366451	      0.00000000	      0.00000000	     38.77716592	    -23.72099862	     -2.83585562	     37.59875361	      0.65622205	      3.36085260	     -4.74572860	      0.00000000	      0.00000000	    -49.25647905	      4.27313030	      1.08565491	     68.52199273	     13.74513349	     16.66664530	     32.22792602	     43.72780653	      0.00000000	      0.00000000	     27.18471789	    -30.80916319	      1.34961991	     90.46272510	     48.11884024	      0.00000000	      0.00000000
      2.52500000	    -24.13015163	    -14.23786399	    -17.19396084	      0.35934752	      1.06199651	     -0.27630480	      0.00000000	      0.50000000	      0.00000000	      0.25000000	     65.00237358	      8.21933038	      0.13128470	    109.10745912	      1.90428440	     16.73624927	     16.29041112	      0.00000000	      0.00000000	     37.65668337	    -24.10296885	     -3.92776740	     36.64110186	      0.63950787	      2.49510568	     -4.84801343	      0.00000000	      0.00000000	    -49.08999608	      4.70993889	      1.71480331	     68.24632267	     14.34962897	     16.37783315	     32.74018762	     43.77065487	      0.00000000	      0.00000000	     26.87344189	    -32.17162449	      2.17847149	     89.16201195	     47.99227354	      0.00000000	      0.00000000
      2.53000000	    -24.46633836	    -14.18776258	    -18.13073552	      0.35897089	      1.06208938	     -0.27687367	      0.00000000	      0.50000000	      0.00000000	      0.25000000	     66.26103889	      8.57485960	      0.19299654	    109.69849014	      1.91459984	     17.29793720	     16.58496417	      0.00000000	      0.00000000	     36.65333806	    -24.42009061	     -4.83809418	     35.59926522	      0.62132439	      1.41462264	     -4.88417644	      0.00000000	      0.00000000	    -48.72502160	      5.15592681	      3.37786996	     67.39952795	     14.20100941	     13.84174846	     34.42571733	     43.67556725	      0.00000000	      0.00000000	     28.80189061	    -32.90174102	      5.98787413	     86.28656126	     47.93593857	      0.00000000	      0.00000000
      2.53500000	    -24.78694863	    -14.21623889	    -18.84254294	      0.35833144	      1.06225741	     -0.27780425	      0.00000000	      0.50000000	      0.00000000	      0.25000000	     67.47031879	      8.80694635	      0.06072219	    110.16585112	      1.92275683	     17.94949800	     16.73896171	      0.00000000	      0.00000000	     35.82362551	    -24.66580127	     -5.51963613	     34.69581910	      0.60555628	      0.50680640	     -4.79121245	      0.00000000	      0.00000000	    -48.70932770	      5.94290301	      3.97004813	     67.59756111	     14.67824453	     13.92236321	     34.67688808	     43.72443393	      0.00000000	      0.00000000	     28.53158069	    -33.34988534	      6.21228832	     85.74213070	     47.87379926	      0.00000000	      0.00000000
      2.54000000	    -24.76633895	    -13.95214604	    -19.62451849	      0.35801738	      1.06317661	     -0.27825602	      0.00000000	      0.50000000	      0.00000000	      0.25000000	     68.35281148	      9.07653046	      0.41079474	    110.55286189	      1.92951144	     18.61333159	     17.38715833	      0.00000000	      0.00000000	     34.46884524	    -24.68029509	     -6.85819365	     33.66196505	      0.58751212	     -0.71553281	     -5.03544599	      0.00000000	      0.00000000	    -48.72039401	      6.19954057	      4.97642500	     67.41338601	     14.89655334	     12.89995223	     34.92061352	     43.60860081	      0.00000000	      0.00000000	     30.17174405	    -34.43324514	      9.68337499	     82.81989510	     47.77604666	      0.00000000	      0.00000000
      2.54500000	    -25.13438854	    -13.89486790	    -20.17837071	      0.35761876	      1.06372107	     -0.27902364	      0.00000000	      0.50000000	      0.00000000	      0.25000000	     69.51864696	      9.26522633	      0.29767661	    110.75422780	      1.93302594	     19.28778922	     17.54408862	      0.00000000	      0.00000000	     33.78532816	    -24.80416940	     -7.56971777	     32.83590079	      0.57309458	     -1.62392083	     -4.75704668	      0.00000000	      0.00000000	    -48.75334370	      6.96743367	      5.47947049	     67.68402972	     15.29192110	     12.99279211	     35.15108088	     43.65487880	      0.00000000	      0.00000000	     29.99981428	    -34.73411967	      9.86958706	     82.38511798	     47.72740160	      0.00000000	      0.00000000
      2.55000000	    -25.30748544	    -13.90461797	    -20.46150920	      0.35711572	      1.06447579	     -0.28004889	      0.00000000	      0.50000000	      0.00000000	      0.25000000	     70.43076470	      9.28122838	      0.14202419	    110.88789548	      1.93535888	     19.99645689	     17.92424298	      0.00000000	      0.00000000	     33.07823738	    -24.83533627	     -8.14138171	     32.12187420	      0.56063247	     -2.87733501	     -4.52547881	      0.00000000	      0.00000000	    -48.91392120	      7.83516686	      5.86067783	     67.87184597	     15.68095660	     13.03976537	     35.30840034	     43.68414594	      0.00000000	      0.00000000	     29.97886910	    -35.36095024	     10.12695692	     81.49312027	     47.60809886	      0.00000000	      0.00000000
